<svg width="2270" height="545" viewBox="0 0 2270 545" fill="none" xmlns="http://www.w3.org/2000/svg">
<path fill-rule="evenodd" clip-rule="evenodd" d="M887.534 393.749L856.407 538.466H784.813L903.098 13.9944H987.907L1099.19 538.466H1026.82L996.467 393.749H887.534ZM987.907 335.385L963.783 210.084C956.78 174.288 949.776 127.622 944.342 90.2566H941.216C935.782 128.388 927.974 176.622 920.996 210.084L896.094 335.385H987.907ZM1372.46 0V441.206C1372.46 470.011 1374.02 512.033 1375.56 538.479H1312.54L1307.87 492.579H1305.54C1293.09 519.024 1264.29 544.717 1226.17 544.717C1156.14 544.717 1113.34 468.442 1113.34 350.962C1113.34 217.114 1170.13 154.081 1230.07 154.081C1260.4 154.081 1284.53 168.101 1297.75 196.881H1299.31V0H1372.46V0ZM1299.3 304.258C1299.3 297.267 1299.3 288.707 1298.52 280.899C1294.63 246.672 1275.17 217.101 1248.73 217.101C1202.8 217.101 1187.25 280.899 1187.25 350.949C1187.25 428.768 1207.49 483.228 1246.39 483.228C1262.74 483.228 1284.51 474.667 1296.96 429.546C1298.52 423.32 1299.3 413.969 1299.3 405.435V304.258V304.258ZM1546.7 544.704C1471.23 544.704 1416.74 480.115 1416.74 350.184C1416.74 212.432 1481.32 154.068 1550.57 154.068C1625.28 154.068 1678.96 220.992 1678.96 348.614C1678.96 498.804 1605.03 544.704 1547.46 544.704H1546.7ZM1549.02 487.131C1594.14 487.131 1604.27 406.978 1604.27 349.405C1604.27 292.585 1594.15 211.667 1547.47 211.667C1499.21 211.667 1489.89 292.585 1489.89 349.405C1489.89 412.426 1500.78 487.131 1548.25 487.131H1549.02ZM1723.06 0H1796.2V203.094H1797.75C1817.21 168.866 1843.66 154.068 1877.13 154.068C1941.7 154.068 1982.18 227.217 1982.18 343.167C1982.18 478.558 1926.93 544.704 1864.68 544.704C1827.32 544.704 1806.31 524.458 1789.96 490.996H1786.87L1782.97 538.466H1719.95C1721.5 512.799 1723.06 469.998 1723.06 441.193V0V0ZM1796.2 404.618C1796.2 413.204 1796.97 421.764 1799.31 427.976C1810.97 473.902 1833.55 483.228 1848.32 483.228C1891.9 483.228 1908.24 425.655 1908.24 347.836C1908.24 275.465 1891.13 217.101 1847.54 217.101C1823.42 217.101 1803.96 245.894 1798.52 273.13C1796.96 280.912 1796.18 291.042 1796.18 298.81V404.618H1796.2V404.618ZM2090.12 364.165C2090.89 461.438 2132.9 485.549 2177.26 485.549C2203.72 485.549 2226.29 479.337 2242.63 471.542L2253.52 524.458C2230.96 536.131 2196.72 542.37 2163.25 542.37C2068.33 542.37 2018.52 470.777 2018.52 354.049C2018.52 230.317 2075.32 154.055 2153.91 154.055C2232.51 154.055 2269.09 229.539 2269.09 324.491C2269.09 343.154 2268.3 354.84 2267.53 364.943L2090.12 364.165V364.165ZM2199.83 312.04C2200.61 245.116 2177.26 209.332 2148.48 209.332C2110.34 209.332 2093.22 264.583 2090.89 312.04H2199.83Z" fill="black"/>
<path fill-rule="evenodd" clip-rule="evenodd" d="M372.582 15.395H591.084V538.466L372.582 15.395ZM218.657 15.395H0V538.466L218.657 15.395ZM295.633 208.165L434.85 538.466H343.621L301.988 433.268H200.085L295.633 208.165Z" fill="#CC2131"/>
</svg>
